<svg width="20" height="20" viewBox="0 0 20 20" fill="none" xmlns="http://www.w3.org/2000/svg">
<rect width="20" height="20" rx="10" fill="#545454"/>
<path d="M9.99996 6.6665C9.1159 6.6665 8.26806 7.01769 7.64294 7.64281C7.01782 8.26794 6.66663 9.11578 6.66663 9.99984C6.66663 10.8839 7.01782 11.7317 7.64294 12.3569C8.26806 12.982 9.1159 13.3332 9.99996 13.3332C10.884 13.3332 11.7319 12.982 12.357 12.3569C12.9821 11.7317 13.3333 10.8839 13.3333 9.99984C13.3333 9.11578 12.9821 8.26794 12.357 7.64281C11.7319 7.01769 10.884 6.6665 9.99996 6.6665ZM9.99996 12.1646C9.42563 12.1646 8.87482 11.9365 8.46871 11.5304C8.0626 11.1243 7.83445 10.5734 7.83445 9.99912C7.83445 9.42479 8.0626 8.87398 8.46871 8.46787C8.87482 8.06176 9.42563 7.8336 9.99996 7.8336C10.5743 7.8336 11.1251 8.06176 11.5312 8.46787C11.9373 8.87398 12.1655 9.42479 12.1655 9.99912C12.1655 10.5734 11.9373 11.1243 11.5312 11.5304C11.1251 11.9365 10.5743 12.1646 9.99996 12.1646Z" fill="white"/>
<path d="M13.3333 7.50016C13.7936 7.50016 14.1667 7.12707 14.1667 6.66683C14.1667 6.20659 13.7936 5.8335 13.3333 5.8335C12.8731 5.8335 12.5 6.20659 12.5 6.66683C12.5 7.12707 12.8731 7.50016 13.3333 7.50016Z" fill="white"/>
<path d="M16.3135 5.62964C16.1421 5.1877 15.8802 4.78636 15.5445 4.4513C15.2088 4.11625 14.8067 3.85488 14.364 3.68391C13.846 3.48974 13.2987 3.38476 12.7455 3.37342C12.0325 3.34237 11.8066 3.3335 9.99856 3.3335C8.19047 3.3335 7.95873 3.3335 7.25163 3.37342C6.69883 3.38418 6.15194 3.48919 5.63457 3.68391C5.19176 3.85468 4.78959 4.11598 4.45386 4.45106C4.11814 4.78614 3.85627 5.18758 3.68507 5.62964C3.49057 6.14684 3.38566 6.69332 3.37484 7.24567C3.343 7.95684 3.33337 8.18232 3.33337 9.98833C3.33337 11.7936 3.33337 12.0235 3.37484 12.731C3.38594 13.284 3.49034 13.8295 3.68507 14.3478C3.85675 14.7897 4.11887 15.191 4.45468 15.526C4.79049 15.861 5.19259 16.1224 5.63531 16.2935C6.1517 16.4955 6.69882 16.608 7.25311 16.6262C7.96613 16.6572 8.19196 16.6668 10 16.6668C11.8081 16.6668 12.0399 16.6668 12.747 16.6262C13.3001 16.6149 13.8474 16.5102 14.3655 16.3164C14.8081 16.145 15.21 15.8834 15.5457 15.5483C15.8814 15.2132 16.1434 14.8118 16.315 14.3699C16.5097 13.8525 16.6141 13.3069 16.6252 12.7539C16.6571 12.0427 16.6667 11.8173 16.6667 10.0113C16.6667 8.20523 16.6667 7.97606 16.6252 7.26859C16.6166 6.70843 16.5112 6.15396 16.3135 5.62964ZM15.4117 12.6763C15.4069 13.1023 15.3291 13.5244 15.1814 13.9242C15.0703 14.2116 14.9 14.4727 14.6817 14.6905C14.4634 14.9084 14.2018 15.0782 13.9139 15.189C13.5179 15.3357 13.0997 15.4135 12.6774 15.419C11.974 15.4515 11.7755 15.4596 9.97191 15.4596C8.16678 15.4596 7.98242 15.4596 7.2657 15.419C6.84361 15.4138 6.42557 15.336 6.02995 15.189C5.74096 15.0789 5.47835 14.9094 5.2591 14.6915C5.03986 14.4736 4.86887 14.2122 4.75719 13.9242C4.61165 13.5287 4.53381 13.1116 4.52692 12.6903C4.49508 11.988 4.48768 11.7899 4.48768 9.98907C4.48768 8.18749 4.48768 8.00341 4.52692 7.28707C4.5317 6.86127 4.60959 6.43945 4.75719 6.03993C4.98301 5.45666 5.44577 4.99758 6.02995 4.77432C6.42577 4.62805 6.84368 4.55029 7.2657 4.54441C7.96983 4.51262 8.16752 4.50375 9.97191 4.50375C11.7763 4.50375 11.9614 4.50375 12.6774 4.54441C13.0997 4.54948 13.518 4.62726 13.9139 4.77432C14.2018 4.88541 14.4633 5.05539 14.6816 5.27334C14.8999 5.4913 15.0702 5.75241 15.1814 6.03993C15.327 6.4354 15.4048 6.8525 15.4117 7.27376C15.4435 7.9768 15.4517 8.17418 15.4517 9.97577C15.4517 11.7766 15.4517 11.9703 15.4199 12.677H15.4117V12.6763Z" fill="white"/>
</svg>
