<svg width="20" height="20" viewBox="0 0 20 20" fill="none" xmlns="http://www.w3.org/2000/svg">
<g clip-path="url(#clip0)">
<path d="M9.99769 0C4.77803 0 0.541626 3.91213 0.541626 8.74477C0.541626 12.3117 2.03744 14.0167 4.07719 15.5649H4.08765V19.749C4.08765 19.9477 4.31778 20.0628 4.47468 19.9372L8.06255 17.2699L8.13577 17.3013C8.732 17.4163 9.35962 17.4686 9.99769 17.4686C15.2174 17.4686 19.4538 13.5565 19.4538 8.72385C19.4538 3.89121 15.2174 0 9.99769 0ZM6.82824 10.9623C7.7592 10.9623 8.54372 10.4079 8.7843 9.55021H10.1546C9.81987 11.2029 8.53326 12.2803 6.82824 12.2803C4.84079 12.2803 3.26129 10.795 3.26129 8.73431C3.26129 6.67364 4.84079 5.18828 6.82824 5.18828C8.55418 5.18828 9.85125 6.29707 10.1651 7.97071H8.79476C8.58556 7.06067 7.76966 6.48535 6.81778 6.48535C5.47886 6.48535 4.58974 7.43724 4.58974 8.73431C4.58974 10.0314 5.61485 10.9623 6.82824 10.9623ZM15.8554 12.1444H14.6002V9.30962C14.6002 8.66109 14.2236 8.30544 13.6379 8.30544C12.9893 8.30544 12.5709 8.70293 12.5709 9.51883V12.1444H11.3157V5.2092H12.5709V7.81381C12.8743 7.35356 13.3554 7.13389 14.0249 7.13389C14.5584 7.13389 14.9977 7.31172 15.3429 7.66736C15.6985 8.02301 15.8659 8.51464 15.8659 9.15272V12.1444H15.8554Z" fill="#545454"/>
</g>
<defs>
<clipPath id="clip0">
<rect width="18.9121" height="20" fill="white" transform="translate(0.541626)"/>
</clipPath>
</defs>
</svg>
